<?xml version="1.0" standalone="no"?><!DOCTYPE svg PUBLIC "-//W3C//DTD SVG 1.1//EN" "http://www.w3.org/Graphics/SVG/1.1/DTD/svg11.dtd"><svg t="1710681087725" class="icon" viewBox="0 0 1024 1024" version="1.1" xmlns="http://www.w3.org/2000/svg" p-id="11552" xmlns:xlink="http://www.w3.org/1999/xlink" width="128" height="128"><path d="M62.966077 855.092056c0-228.197282 0-456.394564 0-684.591847 0.330528-0.517793 0.919952-1.01819 0.954745-1.555425 0.893346-13.706163 5.098111-26.481118 11.091616-38.695301 7.80271-15.899108 18.47784-29.503964 32.397874-40.616046 13.374612-10.677177 27.992541-18.689664 44.740994-22.557762 6.072299-1.402953 12.173251-2.685155 18.260899-4.022617 228.538043 0 457.07711 0 685.615153 0 0.686638 0.338714 1.354857 0.925069 2.062985 0.979304 13.8351 1.052982 26.901697 5.215792 39.026852 11.511171 16.642029 8.640798 31.218002 20.086477 42.329061 35.56603 11.258415 15.684214 19.051915 32.762171 21.98471 51.93279 0.692778 4.530177 1.362021 9.064446 2.042519 13.597693 0 224.444818 0 448.89066 0 673.335479-0.682545 4.529153-0.836041 9.218966-2.148943 13.557784-3.596921 11.885701-6.550183 24.163329-11.850909 35.289738-7.191796 15.095813-18.206664 27.64871-31.465642 38.120203-16.439414 12.983709-34.891671 21.251-55.56041 24.564465-4.853541 0.778736-9.736758 1.375324-14.606673 2.054799-223.421512 0-446.844048 0-670.26556 0-1.028423-0.340761-2.051729-0.966001-3.084245-0.979304-15.668865-0.207731-30.273491-4.822842-44.182268-11.452843-13.977339-6.662747-26.02063-16.031115-36.465516-27.649733-13.119809-14.595416-22.275329-31.112602-26.851555-50.16554C65.540715 867.267353 64.302515 861.168448 62.966077 855.092056zM437.347766 557.309952c-54.392818 0-108.785635 0.099261-163.17743-0.100284-8.78099-0.031722-13.728676 5.160533-13.72049 13.591553 0.033769 38.364773 0.005117 76.729545 0.022513 115.093295 0.004093 7.995091 3.177366 12.157901 10.622942 14.408151 20.552082 6.210445 41.030485 12.673647 61.651129 18.648732 22.056342 6.390547 44.167942 12.622482 66.394153 18.387789 17.403369 4.513804 34.94693 8.56405 52.563146 12.154831 13.088086 2.667759 26.370601 4.436032 39.612183 6.28003 7.656377 1.066285 15.394618 1.983167 23.108301 2.089591 12.947893 0.177032 26.397207 1.76418 38.73521-1.107217 15.551184-3.620457 30.459732-10.543124 45.158503-17.126053 12.795421-5.729491 25.00551-12.802584 37.307697-19.584034 13.44522-7.411807 26.837228-14.941294 40.003086-22.836101 17.739013-10.636245 35.418674-21.394263 52.779064-32.633235 11.353582-7.349385 22.499433-15.142885 33.000602-23.64963 10.949376-8.870018 17.261129-21.073968 18.691711-35.054377 1.25048-12.228509-1.659803-23.974018-10.543124-32.988322-7.359618-7.467065-17.279548-9.746992-27.509541-10.455119-13.016455-0.901533-25.130354 3.361561-37.405935 6.627954-19.943215 5.306866-39.854707 10.732435-59.81941 15.957437-1.031493 0.270153-3.15997-0.539282-3.553942-1.402953-7.984858-17.515932-22.596647-25.847691-40.748053-26.065655C546.137495 556.89142 491.739561 557.309952 437.347766 557.309952zM488.764809 451.909413c52.16508 0 104.331183 0 156.496264 0 8.91709 0 13.265118-4.322445 13.266142-13.233396 0.005117-54.552453 0.005117-109.104907 0.001023-163.656337-0.001023-9.732665-4.695952-14.464433-14.366196-14.464433-103.649662-0.004093-207.2983-0.004093-310.947961 0-9.575076 0-14.419408 4.924149-14.420431 14.639418-0.004093 36.310997-0.002047 72.623018-0.002047 108.934015 0 18.240433-0.062422 36.481889 0.030699 54.722322 0.037862 7.512091 4.495384 13.298887 12.935614 13.241582C384.091842 451.731358 436.428837 451.909413 488.764809 451.909413zM699.462532 493.864968c-3.013637 0-5.223978 0-7.43432 0-99.073436 0-198.145849-0.016373-297.219285 0.090051-2.681062 0.00307-5.885034 0.647753-7.92653 2.200108-3.758604 2.858094-5.857405 6.798846-3.623527 11.918447 2.099824 4.812609 5.220908 7.349385 10.79588 7.344269 104.870466-0.086981 209.741955-0.162706 314.611397 0.12689 8.30106 0.022513 13.475919-5.901407 13.440104-13.792121-0.25071-54.736649-0.132006-109.47432-0.132006-164.211992 0-0.852414 0.038886-1.707898-0.008186-2.557242-0.410346-7.353478-8.321526-12.542664-14.94641-9.651824-5.891174 2.570545-7.550976 7.697309-7.553023 13.614066-0.00921 49.451272-0.005117 98.902544-0.005117 148.353816C699.462532 489.306138 699.462532 491.311819 699.462532 493.864968z" p-id="11553" fill="#cdcdcd"></path><path d="M283.543821 578.799382c1.861394 0 3.550873 0 5.240351 0 102.660124 0 205.320249-0.023536 307.97935 0.041956 8.636704 0.005117 17.337877 1.620917 22.270213 9.386788 5.361101 8.44023 5.384637 23.968901-9.982352 28.330232-5.4225 1.539053-11.07422 2.668783-16.685008 3.055592-10.650571 0.734734-21.351284 0.681522-32.022321 1.165546-20.780279 0.942465-41.557488 1.952468-62.327534 3.095501-7.883551 0.433882-15.757892 1.170662-23.606651 2.035356-5.365194 0.590448-9.44307 5.473665-9.281387 10.530844 0.183172 5.713119 4.693906 10.924817 10.499122 10.79588 10.109242-0.224104 20.201088-1.183965 30.30112-1.832741 0.680499-0.044002 1.362021-0.064468 2.043542-0.086981 10.676154-0.342808 21.35947-0.552585 32.028461-1.056052 19.587104-0.924045 39.203884-1.572822 58.736752-3.194762 14.551414-1.208525 27.915793-6.189979 37.432541-18.092054 2.63706-3.297093 3.903913-7.662517 6.048763-11.394515 0.898463-1.563612 2.216481-3.579525 3.727904-3.996011 27.430746-7.560186 54.845119-15.208377 82.452897-22.074761 6.423293-1.597381 13.602809-0.942465 20.332071-0.281409 5.590322 0.549515 8.499581 5.826705 9.128915 12.240789 1.446955 14.737656-5.649674 24.826432-17.23964 32.413224-24.015973 15.721053-47.831378 31.782867-72.331375 46.715975-20.092617 12.245905-41.079604 23.020296-61.628616 34.522258-16.644075 9.31618-33.663704 17.918092-52.022841 23.197328-10.113335 2.908236-20.663622 3.89061-31.346939 2.237971-5.984295-0.926092-12.161994-0.530073-18.190291-1.249457-13.135158-1.565658-26.359344-2.811022-39.312354-5.373381-21.072945-4.168949-42.053792-8.902764-62.893422-14.117532-19.690458-4.927219-39.199791-10.610662-58.69582-16.278755-19.178805-5.575995-38.260395-11.487635-57.317427-17.467837-1.566682-0.491187-3.730974-2.629897-3.739161-4.013407-0.190335-32.56979-0.122797-65.140603-0.089028-97.710392C283.053658 580.034513 283.242969 579.725474 283.543821 578.799382z" p-id="11554" fill="#cdcdcd"></path><path d="M341.541747 430.066943c0-49.075719 0-97.775884 0-146.739039 98.045013 0 195.854667 0 294.070572 0 0 48.741098 0 97.562013 0 146.739039C537.797549 430.066943 439.867146 430.066943 341.541747 430.066943zM488.587777 308.646546c-26.600845-0.122797-47.820122 21.694091-47.862078 47.363727-0.046049 27.948539 21.950941 48.569182 48.028876 48.518017 27.117614-0.053212 47.226604-21.276582 47.926546-47.670719C537.370831 330.841034 514.860141 308.186058 488.587777 308.646546z" p-id="11555" fill="#cdcdcd"></path><path d="M488.460888 382.324592c16.60519 0.005117 26.224268-11.060917 26.426883-25.958208 0.194428-14.307867-9.293667-25.550932-26.103518-26.031886-14.385639-0.411369-24.861224 10.659781-25.974581 25.092491C461.616496 370.915751 476.618165 383.497301 488.460888 382.324592z" p-id="11556" fill="#cdcdcd"></path></svg>