<?xml version="1.0" standalone="no"?><!DOCTYPE svg PUBLIC "-//W3C//DTD SVG 1.1//EN" "http://www.w3.org/Graphics/SVG/1.1/DTD/svg11.dtd"><svg t="1710681768906" class="icon" viewBox="0 0 1024 1024" version="1.1" xmlns="http://www.w3.org/2000/svg" p-id="18106" xmlns:xlink="http://www.w3.org/1999/xlink" width="128" height="128"><path d="M463.104 628.864a31.584 31.584 0 0 0 38.24-4.96l158.976-158.976a31.584 31.584 0 1 0-44.64-44.672l-136.928 136.896-73.92-72.96a32.32 32.32 0 0 0-43.456 1.632 31.296 31.296 0 0 0-1.696 42.88l96 94.752a31.968 31.968 0 0 0 7.424 5.408zM512.192 832a36.48 36.48 0 0 1-11.52-1.792C489.44 826.304 224 733.504 224 476.48v-135.104a35.52 35.52 0 0 1 20.896-32.352l252.16-113.792a36.48 36.48 0 0 1 29.888 0l252.16 113.792c12.8 5.824 20.928 18.464 20.896 32.32v135.136c0 258.144-265.472 349.856-276.64 353.76a36.48 36.48 0 0 1-11.2 1.792z" fill="#cdcdcd" p-id="18107"></path></svg>