<?xml version="1.0" standalone="no"?><!DOCTYPE svg PUBLIC "-//W3C//DTD SVG 1.1//EN" "http://www.w3.org/Graphics/SVG/1.1/DTD/svg11.dtd"><svg t="1710681857705" class="icon" viewBox="0 0 1024 1024" version="1.1" xmlns="http://www.w3.org/2000/svg" p-id="25527" xmlns:xlink="http://www.w3.org/1999/xlink" width="128" height="128"><path d="M809.683426 511.968082c132.588243-103.351163 204.276541-203.318995 172.039149-255.984041-14.682376-23.938657-48.834861-35.237703-96.903684-35.237703-57.963469 0-136.354591 17.044324-224.44885 47.749641C631.707489 108.649585 575.467604 0 510.928984 0 446.390364 0 390.150479 108.649585 361.487927 268.495979c-88.094258-30.705318-166.485381-47.749642-224.44885-47.749641-48.004987 0-82.285144 11.299046-96.903685 35.237703-32.173555 52.665046 39.450907 152.632878 171.975314 255.984041C79.586299 615.127735 7.961837 715.095568 40.135392 767.82445c14.682376 23.874821 48.834861 35.173867 96.903685 35.173867 57.963469 0 136.354591-17.044324 224.44885-47.749642 28.662552 159.974066 84.902438 268.495979 149.441057 268.495979 64.53862 0 120.778505-108.649585 149.441057-268.495979 88.094258 30.705318 166.485381 47.749642 224.44885 47.749642 48.004987 0 82.285144-11.299046 96.903684-35.173867 32.173555-52.728882-39.450907-152.696715-171.975313-255.984041z m75.135465-222.85294c17.682688 0 28.726389 1.915093 34.854685 3.638676-8.681753 29.045571-61.346799 96.329157-167.634437 176.826881-23.427966-16.278287-48.004987-32.556574-74.050246-48.515678a1326.201608 1326.201608 0 0 0-7.532698-83.498036c84.200237-30.513808 160.229412-48.515679 214.362696-48.515679zM563.274848 590.486877c-17.363506 9.44779-34.854685 18.384889-52.345864 27.066642a1517.200175 1517.200175 0 0 1-52.345864-27.066642c-17.044324-9.256281-31.982046-18.448725-47.621969-27.705006-0.638364-16.852815-1.59591-32.875756-1.59591-50.941462 0-18.065707 1.021383-34.024811 1.59591-50.941463 15.767596-9.256281 30.641481-18.384889 47.621969-27.641169 17.363506-9.511626 34.854685-18.448725 52.345864-27.130478 17.491179 8.681753 34.982358 17.618852 52.345864 27.130478 17.044324 9.256281 31.982046 18.384889 47.621968 27.641169 0.638364 16.916651 1.59591 32.875756 1.595911 50.941463 0 18.065707-1.021383 34.088648-1.595911 50.941462-15.639923 9.192444-30.641481 18.321052-47.621968 27.705006z m42.578891 54.260957l-1.468238 15.639922-15.384577-6.383642c2.234275-1.276728 4.532386-2.298111 6.830497-3.574839l10.022318-5.745278z m-172.996696 9.128608c-5.106914 2.298111-10.213827 4.213204-15.384577 6.383642-0.638364-5.106914-1.021383-10.405336-1.468237-15.639923 3.38333 1.851256 6.575151 3.830185 10.022317 5.745278 2.298111 1.276728 4.596222 2.361948 6.830497 3.511003zM341.124109 519.692289l-11.745901-7.788044c3.830185-2.617293 7.85188-5.106914 11.745901-7.788043l-0.127673 7.788043 0.127673 7.788044z m74.68861-140.695468l1.532074-15.639923 15.448414 6.383642c-2.298111 1.276728-4.596222 2.298111-6.894334 3.574839l-10.022317 5.745278z m173.188205-9.128608c5.106914-2.298111 10.213827-4.213204 15.384577-6.383642 0.638364 5.106914 1.021383 10.405336 1.468238 15.639922-3.38333-1.78742-6.575151-3.766349-10.022318-5.745277l-6.830497-3.511003z m91.605262 134.247989l11.745901 7.788043c-3.830185 2.617293-7.85188 5.106914-11.745901 7.788044l0.127673-7.788044c0.127673-2.617293 0-5.106914-0.127673-7.788043zM510.928984 69.262515c21.57671 13.214139 61.15529 89.370987 84.008727 224.065831-27.44966 11.171373-55.473848 23.427966-84.008727 37.025123a1618.572408 1618.572408 0 0 0-84.008728-37.025123c22.853438-134.694844 62.432018-210.660183 84.008728-224.065831z m-408.872265 223.427467c6.319805-1.659747 17.171997-3.574839 34.982358-3.57484 54.260956 0 130.226295 17.874197 214.362695 48.451843-3.191821 26.938969-5.809114 54.707811-7.532697 83.625709-25.917586 15.959105-50.62228 32.237392-74.050246 48.515678-106.287638-80.625397-158.952684-147.908983-167.76211-176.954554z m34.982358 442.067203c-17.682688 0-28.726389-1.915093-34.854685-3.702513 8.681753-28.981734 61.346799-96.329157 167.634437-176.826881 23.427966 16.278287 48.004987 32.556574 74.050246 48.515679 1.723583 28.790225 4.213204 56.68674 7.532697 83.625709-84.200237 30.449972-160.229412 48.388006-214.362695 48.388006zM510.928984 954.545976c-21.57671-13.214139-61.15529-89.370987-84.008728-224.065831a1576.759554 1576.759554 0 0 0 84.008728-37.025123c28.534879 13.597157 56.559067 25.85375 84.008727 37.025123-22.853438 134.694844-62.432018 210.72402-84.008727 224.065831z m373.889907-219.788791c-54.260956 0-130.226295-17.938034-214.362696-48.515679 3.191821-26.938969 5.809114-54.707811 7.532698-83.625709 25.917586-15.959105 50.62228-32.173555 74.050246-48.515679 106.287638 80.561561 158.952684 147.845147 167.76211 176.826882-6.319805 1.915093-17.171997 3.830185-34.982358 3.830185z" fill="#cdcdcd" p-id="25528"></path></svg>