<?xml version="1.0" standalone="no"?><!DOCTYPE svg PUBLIC "-//W3C//DTD SVG 1.1//EN" "http://www.w3.org/Graphics/SVG/1.1/DTD/svg11.dtd"><svg t="1706710759990" class="icon" viewBox="0 0 1146 1024" version="1.1" xmlns="http://www.w3.org/2000/svg" p-id="4208" xmlns:xlink="http://www.w3.org/1999/xlink" width="143.25" height="128"><path d="M527.189289 508.101864l-181.196115 181.196114-48.390654 47.584143-232.006301-232.006301a132.536624 132.536624 0 0 1 0-186.84169l216.682594-216.413757 244.103965 244.103964a114.524547 114.524547 0 0 1 0.806511 162.377527z" fill="#00CC86" p-id="4209"></path><path d="M594.667367 1008.138619a107.534786 107.534786 0 0 1-73.930166-30.10974L185.228669 641.982673a26.883697 26.883697 0 0 1 37.906012-37.906012l335.508532 335.777369a51.885534 51.885534 0 0 0 72.317144 0l460.786558-461.055395a26.883697 26.883697 0 0 1 37.906012 37.906012L668.866369 978.83539a104.577579 104.577579 0 0 1-74.199002 29.303229zM423.149383 373.683381a26.883697 26.883697 0 0 1-18.818588-7.796272 26.883697 26.883697 0 0 1 0-37.906012l295.720662-295.720661 1.881859-2.150696a105.921764 105.921764 0 0 1 148.666842 0L1137.449199 317.227619a26.883697 26.883697 0 1 1-37.906012 37.906012L812.156472 68.553426a51.885534 51.885534 0 0 0-72.854818 0l-295.720662 297.333683a26.883697 26.883697 0 0 1-20.431609 7.796272z" fill="#492F5D" p-id="4210"></path><path d="M594.667367 1023.731163a66.940404 66.940404 0 0 1-47.584143-19.625098l-516.166973-516.166973a104.846416 104.846416 0 0 1 0-148.666842L339.003413 30.647414a105.115253 105.115253 0 0 1 148.398005 0l125.815699 125.8157a26.883697 26.883697 0 0 1-37.906012 37.906012l-125.815699-125.8157a51.616697 51.616697 0 0 0-72.585981 0L70.166448 377.178262a51.616697 51.616697 0 0 0 0 72.585981l516.43581 516.43581a12.3665 12.3665 0 0 0 9.409294 3.763717 13.173011 13.173011 0 0 0 9.67813-3.763717l361.854555-362.123392a13.441848 13.441848 0 0 0 0-19.087425l-282.278813-280.934628a26.883697 26.883697 0 0 1 0-38.17485 26.883697 26.883697 0 0 1 37.906012 0l281.203466 281.203466a67.746915 67.746915 0 0 1 0 95.168286L642.25151 1004.106065a66.940404 66.940404 0 0 1-47.584143 19.625098z" fill="#492F5D" p-id="4211"></path><path d="M903.56104 721.558414a26.883697 26.883697 0 0 1-19.087425-8.065109l-190.605408-190.336571a26.991231 26.991231 0 0 1 38.174849-38.174849l190.605408 190.605408a26.883697 26.883697 0 0 1 0 37.906012 26.883697 26.883697 0 0 1-19.087424 8.065109zM804.3602 821.565765a26.883697 26.883697 0 0 1-19.087425-8.065109l-190.605408-190.336571a26.991231 26.991231 0 0 1 38.174849-38.174849l190.605408 190.605408a26.883697 26.883697 0 0 1 0 37.906012 26.883697 26.883697 0 0 1-19.087424 8.065109zM704.352849 921.573116a26.883697 26.883697 0 0 1-19.087425-7.796272L494.660016 723.171436a26.991231 26.991231 0 0 1 38.174849-38.174849l190.336571 190.605408a26.883697 26.883697 0 0 1-18.818587 45.971121zM532.834865 425.031242a165.334734 165.334734 0 0 1-118.288265-48.928328l-10.215805-10.215805a26.883697 26.883697 0 0 1 37.906013-37.906012l10.215804 10.215805a113.718036 113.718036 0 0 0 161.302179 0l196.250985-195.982147a26.883697 26.883697 0 0 1 37.906012 0 26.883697 26.883697 0 0 1 0 37.906012l-195.982148 195.982147a165.872407 165.872407 0 0 1-119.094775 48.928328z" fill="#492F5D" p-id="4212"></path></svg>